Coordinates
version=1
nRows=13
nColumns=26
inDegrees=yes

Units are S.I. units (second, meters, Newtons, ...)
If the header above contains a line with 'inDegrees', this indicates whether rotational values are in degrees (yes) or radians (no).

endheader
time	pelvis_tilt	pelvis_list	pelvis_rotation	pelvis_tx	pelvis_ty	pelvis_tz	hip_flexion_r	hip_adduction_r	hip_rotation_r	knee_angle_r	knee_angle_r_beta	ankle_angle_r	subtalar_angle_r	mtp_angle_r	hip_flexion_l	hip_adduction_l	hip_rotation_l	knee_angle_l	knee_angle_l_beta	ankle_angle_l	subtalar_angle_l	mtp_angle_l	lumbar_extension	lumbar_bending	lumbar_rotation
      1.25500000	     -6.14915174	      1.38373232	     -0.03558333	     -0.17789294	      0.95933497	     -0.55103311	     17.09356269	     -7.86313854	      2.20126127	     35.87493078	      0.62613566	     16.02180124	      0.00000000	      0.00000000	     19.25080390	     -2.37004524	     -0.13161744	     38.29844789	      0.66843401	     14.11626139	      0.00000000	      0.00000000	    -16.00212504	     -0.59939981	      1.08137638
      1.26000000	     -6.10268670	      1.29774498	     -0.01331959	     -0.17856889	      0.95570028	     -0.55103984	     17.34436137	     -7.79141519	      2.06441568	     36.56633062	      0.63820286	     17.00074299	      0.00000000	      0.00000000	     19.54297491	     -2.49489986	     -0.17896494	     39.05594583	      0.68165485	     15.11279610	      0.00000000	      0.00000000	    -16.22985573	     -0.51824947	      1.05947327
      1.26500000	     -6.05465881	      1.20373933	      0.00069914	     -0.17925221	      0.95216139	     -0.55104905	     17.61661941	     -7.70838742	      1.94608259	     37.28758628	      0.65079115	     17.94175457	      0.00000000	      0.00000000	     19.84524445	     -2.62745919	     -0.20867242	     39.82620218	      0.69509836	     16.06830016	      0.00000000	      0.00000000	    -16.46055310	     -0.42743003	      1.03606994
      1.27000000	     -6.00658830	      1.10570529	      0.00469740	     -0.17993575	      0.94874125	     -0.55106517	     17.91503029	     -7.61714954	      1.85314033	     38.04424322	      0.66399731	     18.84410085	      0.00000000	      0.00000000	     20.15844180	     -2.76124885	     -0.21910637	     40.60497809	      0.70869056	     16.97262460	      0.00000000	      0.00000000	    -16.69187714	     -0.33080082	      1.00786486
      1.27500000	     -5.95872566	      1.00422246	     -0.00186817	     -0.18061003	      0.94546119	     -0.55108691	     18.23906609	     -7.51524173	      1.79382047	     38.83396697	      0.67778059	     19.69404897	      0.00000000	      0.00000000	     20.48382873	     -2.89516006	     -0.21026482	     41.39250083	      0.72243543	     17.81370972	      0.00000000	      0.00000000	    -16.92080578	     -0.22943306	      0.98159093
      1.28000000	     -5.91094691	      0.90435049	     -0.01885185	     -0.18126446	      0.94233988	     -0.55110797	     18.58811647	     -7.40570076	      1.77480846	     39.65703884	      0.69214590	     20.48423625	      0.00000000	      0.00000000	     20.81989241	     -3.02316997	     -0.18172225	     42.18627329	      0.73628937	     18.58419821	      0.00000000	      0.00000000	    -17.14688582	     -0.13053121	      0.95758567
      1.28500000	     -5.86133244	      0.80821999	     -0.04784081	     -0.18188328	      0.93939679	     -0.55112056	     18.95554620	     -7.28775986	      1.80278847	     40.50567426	      0.70695738	     21.20264776	      0.00000000	      0.00000000	     21.16066372	     -3.14472356	     -0.13839752	     42.98143364	      0.75016753	     19.27791182	      0.00000000	      0.00000000	    -17.36913114	     -0.03787718	      0.93942657
      1.29000000	     -5.80540428	      0.72124450	     -0.09328519	     -0.18245011	      0.93664871	     -0.55111286	     19.33257317	     -7.16454462	      1.88346064	     41.37174539	      0.72207317	     21.84693315	      0.00000000	      0.00000000	     21.49541056	     -3.25828665	     -0.09175923	     43.77161641	      0.76395883	     19.89820562	      0.00000000	      0.00000000	    -17.59248857	      0.04061281	      0.92758200
      1.29500000	     -5.73835082	      0.64373786	     -0.15311882	     -0.18295251	      0.93410946	     -0.55108049	     19.70580188	     -7.03612820	      2.01344779	     42.24165015	      0.73725588	     22.41086222	      0.00000000	      0.00000000	     21.81293125	     -3.36434661	     -0.04286124	     44.54732331	      0.77749746	     20.44542205	      0.00000000	      0.00000000	    -17.81993789	      0.10382758	      0.92708200
      1.30000000	     -5.65633221	      0.58040022	     -0.22654320	     -0.18338508	      0.93178501	     -0.55102137	     20.06683079	     -6.90917816	      2.18739439	     43.10913676	      0.75239637	     22.89843638	      0.00000000	      0.00000000	     22.10233044	     -3.45796841	      0.00562184	     45.29892511	      0.79061539	     20.92078297	      0.00000000	      0.00000000	    -18.05616688	      0.14587217	      0.93508028
      1.30500000	     -5.55804671	      0.53059422	     -0.31150316	     -0.18374893	      0.92967350	     -0.55093950	     20.40868324	     -6.78625839	      2.39518411	     43.96362519	      0.76731001	     23.30968914	      0.00000000	      0.00000000	     22.35675525	     -3.53903836	      0.05410495	     46.01696219	      0.80314750	     21.32852281	      0.00000000	      0.00000000	    -18.30148801	      0.16785652	      0.95130088
      1.31000000	     -5.44140997	      0.49435634	     -0.40402317	     -0.18404606	      0.92777204	     -0.55084090	     20.72417388	     -6.67162624	      2.62437793	     44.79590164	      0.78183597	     23.65207059	      0.00000000	      0.00000000	     22.56878425	     -3.60531878	      0.10484609	     46.69204148	      0.81492986	     21.67591455	      0.00000000	      0.00000000	    -18.55820858	      0.16944273	      0.97580067
      1.31500000	     -5.31100657	      0.47080432	     -0.50134369	     -0.18429040	      0.92606729	     -0.55072618	     21.01592226	     -6.56596489	      2.87103648	     45.60245694	      0.79591302	     23.91773207	      0.00000000	      0.00000000	     22.74021045	     -3.65582504	      0.16061135	     47.31751934	      0.82584651	     21.96866115	      0.00000000	      0.00000000	    -18.82153450	      0.15183670	      1.00815417
